<?xml version="1.0" standalone="no"?>
<!DOCTYPE svg PUBLIC "-//W3C//DTD SVG 20010904//EN"
 "http://www.w3.org/TR/2001/REC-SVG-20010904/DTD/svg10.dtd">
<svg version="1.0" xmlns="http://www.w3.org/2000/svg"
 width="360.000000pt" height="360.000000pt" viewBox="0 0 360.000000 360.000000"
 preserveAspectRatio="xMidYMid meet">
<metadata>
Created by potrace 1.11, written by Peter Selinger 2001-2013
</metadata>
<g transform="translate(0.000000,360.000000) scale(0.100000,-0.100000)"
fill="#000000" stroke="none">
<path d="M433 3309 c-1 -41 -1 -86 -2 -101 l-1 -28 -95 0 -95 0 -1 -302 c0
-167 -1 -832 -2 -1478 l-1 -1175 1184 2 c652 1 1317 2 1478 2 l292 1 0 100 0
100 99 0 99 0 -3 803 c-2 441 -4 1040 -4 1331 -1 291 -3 527 -6 524 -5 -4 -13
-1330 -14 -2218 l-1 -415 -80 1 c-44 1 -82 3 -84 5 -2 2 -6 505 -9 1117 -3
613 -8 1116 -11 1119 -3 4 -6 -254 -7 -573 -1 -1083 -5 -1654 -12 -1660 -7 -7
-2679 -6 -2686 1 -2 3 -5 608 -6 1345 -2 1222 -1 1340 14 1341 33 2 1088 8
1645 8 319 1 577 4 573 7 -3 3 -502 8 -1109 10 -607 3 -1108 7 -1114 9 -12 4
-16 164 -5 166 12 2 1285 7 1855 8 324 1 587 4 583 7 -3 3 -561 8 -1240 11
l-1233 5 -1 -73z m-4 -164 c3 -4 6 -617 6 -1363 l0 -1357 1360 2 c765 1 1362
-3 1365 -7 7 -12 3 -150 -4 -158 -5 -5 -2878 -4 -2883 1 -5 6 -6 2874 0 2883
6 11 145 9 156 -1z"/>
<path d="M3198 3363 c7 -3 16 -2 19 1 4 3 -2 6 -13 5 -11 0 -14 -3 -6 -6z"/>
<path d="M2718 3163 c7 -3 16 -2 19 1 4 3 -2 6 -13 5 -11 0 -14 -3 -6 -6z"/>
<path d="M2788 3163 c6 -2 18 -2 25 0 6 3 1 5 -13 5 -14 0 -19 -2 -12 -5z"/>
<path d="M2868 3163 c7 -3 16 -2 19 1 4 3 -2 6 -13 5 -11 0 -14 -3 -6 -6z"/>
<path d="M2948 3163 c7 -3 16 -2 19 1 4 3 -2 6 -13 5 -11 0 -14 -3 -6 -6z"/>
<path d="M2988 3163 c7 -3 16 -2 19 1 4 3 -2 6 -13 5 -11 0 -14 -3 -6 -6z"/>
<path d="M3171 3084 c0 -11 3 -14 6 -6 3 7 2 16 -1 19 -3 4 -6 -2 -5 -13z"/>
<path d="M3171 2964 c0 -11 3 -14 6 -6 3 7 2 16 -1 19 -3 4 -6 -2 -5 -13z"/>
<path d="M3171 2924 c0 -11 3 -14 6 -6 3 7 2 16 -1 19 -3 4 -6 -2 -5 -13z"/>
<path d="M3172 2800 c0 -14 2 -19 5 -12 2 6 2 18 0 25 -3 6 -5 1 -5 -13z"/>
</g>
</svg>
